/* XPM */
static char *_96f4456255c4370b6bda29d0ef66b0foxbseygVGd2L0hcp[] = {
/* columns rows colors chars-per-pixel */
"100 100 64 1 ",
"  c None",
". c black",
"X c gray2",
"o c #080708",
"O c #0A0808",
"+ c #0B0809",
"@ c gray4",
"# c #0C0B0A",
"$ c #0C0A0C",
"% c #100C0D",
"& c #110E0D",
"* c #130F0F",
"= c #100E10",
"- c #161011",
"; c #191413",
": c #191614",
"> c #1E1E11",
", c #221B1A",
"< c #211C1B",
"1 c #25201E",
"2 c #262526",
"3 c gray16",
"4 c #312928",
"5 c #312B28",
"6 c #323335",
"7 c #33373B",
"8 c #383A3E",
"9 c #3A3D3D",
"0 c #413736",
"q c #423D39",
"w c #3B3E41",
"e c #3E4244",
"r c #494C46",
"t c #45494A",
"y c #434A4E",
"u c #494C4E",
"i c #55524C",
"p c #5D554E",
"a c #585B5C",
"s c #7F6D5E",
"d c #5E666E",
"f c #656C67",
"g c #757A7B",
"h c #747B7D",
"j c #727C7F",
"k c #8C3B4E",
"l c #818B88",
"z c #97928B",
"x c #808B95",
"c c #87959C",
"v c #919A9C",
"b c #909B9E",
"n c #BAAA9B",
"m c #8D99A5",
"M c #B89AA6",
"N c #A1B0BC",
"B c #ADB9BD",
"V c #FFDABC",
"C c #BCCCDC",
"Z c #CFC9D3",
"A c #C9D9DE",
"S c #C6D7E5",
"D c #D0E2ED",
"F c #E5F9FF",
/* pixels */
"      @@@@@@@@@@@@@@@@      @@@@@@@@@@@@@      @@@@@@@@@@@@@@@@@@@@@@   @@@@@@@@@@@@@@@@@@@@@@      ",
"      @@@@@@@@@@@@@@@@      @@@@@@@@@@@@@      @@@@@@@@@@@@@@@@@@@@@@   @@@@@@@@@@@@@@@@@@@@@@      ",
"      @@@@@@@@@@@@@@@@      @@@@@@@@@@@@@      @@@@@@@@@@@@@@@@@@@@@@   @@@@@@@@@@@@@@@@@@@@@@      ",
"   @@@555qqqiiiiiiiiii@@@@@@555iiiiiiiiii@@@@@@555qqqiiiiiiiiiiiiiiii@@@555iiiiiiqqqqqqiiiiiii@@@   ",
"   @@@555qqqiiiiiiiiii@@@@@@555iiiiiiiiii@@@@@@555qqqiiiiiiiiiiiiiiii@@@555iiiiiiqqqqqqiiiiiii@@@   ",
"   @@@555qqqiiiiiiiiii@@@@@@555iiiiiiiiii@@@@@@555qqqiiiiiiiiiiiiiiii@@@555iiiiiiqqqqqqiiiiiii@@@   ",
"@@@555qqqiiiiiiiiiiqqq555qqqiiiiiiiiiqqqqqqq555qqqiiiiiiqqqqqqiiiiqqqqqqqqqqqqqqqqqqiiiiiiiqqqqqq@@@",
"@@@555qqqiiiiiiiiiiqqq555qqqiiiiiiiiiqqqqqqq555qqqiiiiiiqqqqqqiiiiqqqqqqqqqqqqqqqqqqiiiiiiiqqqqqq@@@",
"@@@555qqqiiiiiiiiiiqqq555qqqiiiiiiiiiqqqqqqq555qqqiiiiiiqqqqqqiiiiqqqqqqqqqqqqqqqqqqiiiiiiiqqqqqq@@@",
"@@@,,,555qqqiiiiiii,,,,,,555qqqiiiiii5555555555qqqqqqiii,,,555qqqq555555555555,,,555qqqiiii555555@@@",
"@@@,,,555qqqiiiiiii,,,,,,555qqqiiiiii5555555555qqqqqqiii,,,555qqqq555555555555,,,555qqqiiii555555@@@",
"@@@,,,555qqqiiiiiii,,,,,,555qqqiiiiii5555555555qqqqqqiii,,,555qqqq555555555555,,,555qqqiiii555555@@@",
"@@@,,,555qqqiiiiqqq,,,,,,,,,555qqqqqq,,,,===,,,555qqqqqq,,,,,,5555,,,,,,=========,,,555qqqq,,,@@@   ",
"@@@,,,555qqqiiiiqqq,,,,,,,,,555qqqqqq,,,,===,,,555qqqqqq,,,,,,5555,,,,,,=========,,,555qqqq,,,@@@   ",
"@@@,,,555qqqiiiiqqq,,,,,,,,,555qqqqqq,,,,===,,,555qqqqqq,,,,,,5555,,,,,,=========,,,555qqqq,,,@@@   ",
"@@@,,,555qqqiiiiqqq,,,,,,,,,555qqqqqq,,,,===,,,555qqqqqq,,,,,,5555,,,,,,=========,,,555qqqq,,,@@@   ",
"   @@@===555qqqq555======,,,555qqq555==========,,,555555,,,=======************======,,,,,,,---@@@   ",
"   @@@===555qqqq555======,,,555qqq555==========,,,555555,,,=======************======,,,,,,,---@@@   ",
"   @@@===555qqqq555======,,,555qqq555==========,,,555555,,,=======************======,,,,,,,---@@@   ",
"   @@@===,,,5555===***======,,,555===-------======,,,,,,===---****555555555******======5555555@@@   ",
"   @@@===,,,5555===***======,,,555===-------======,,,,,,===---****555555555******======5555555@@@   ",
"   @@@===,,,5555===***======,,,555===-------======,,,,,,===---****555555555******======5555555@@@   ",
"   @@@==========------***=========----------***555555------***,,,,,,,555555555---***,,,5555555555@@@",
"   @@@==========------***=========----------***55....@-----***,,,,,,,5555555....@***,,,5555555555@@@",
"   @@@==========------***=========----------***55....@-----***,,,,,,,5555555....@***,,,5555555555@@@",
"   @@@**********---===,,,******---,,,----***,,,55....:55***,,,,,,,,,,5550000....@,,,,,,5555000000@@@",
"   @@@**********---===,,,******---,,,----***,,,55....:55***,,,,,,,,,,5550000....@,,,,,,5555000000@@@",
"   @@@**********---===,,,******---,,,----***;**::99993::@@*,,,,,,,,,,551<<<<jjjje****,,5555000000@@@",
"@@@******,,,5555555---===555******---****,,,*....gggg9....*,,,,,,,55500<....FFFFj....550000000---@@@",
"@@@******,,,5555555---===555******---****,,,*....gggg9....*,,,,,,,55500<....FFFFj....550000000---@@@",
"@@@******,,,5555555---===555******---****,,,*....gggg9....*,,,,,,,55500<....FFFFj....550000000---@@@",
"@@@***===,,,,,,,555555---***555555555====***:....gggg9....=***555500000<....FFFFj....**----------@@@",
"@@@***===,,,,,,,555555---***555555555===....9ggggVVVVngggg.............jFFFFVVVVs....**----------@@@",
"@@@***===,,,,,,,555555---***555555555===....9ggggVVVVngggg.............jFFFFVVVVs....**----------@@@",
"   @@@***===5555000000***,,,,,,555555---....9ggggVVVVngggg.............jFFFFVVVVs....55-------@@@   ",
"   @@@***===5555000000***,,,,,,555555---....9ggggVVVVngggg.............jFFFFVVVVs....55-------@@@   ",
"   @@@***===5555000000***,,,,,,555555---....9ggggnnnnzggggjjjjjjjjj9999hBBBBnnnnp....55-------@@@   ",
"      @@@***====000---***,,,555000000***....9gggggggggggggFFFFFFFFFggggggggggggg9....555555---@@@   ",
"      @@@***====000---***,,,555000000***....9gggggggggggggFFFFFFFFFggggggggggggg9....555555---@@@   ",
"      @@@***====000---***,,,555000000***....9gggggggggggggFFFFFFFFFggggggggggggg9....555555---@@@   ",
"      @@@***====000---***,,,555000000***....9gggggggggggggFFFFFFFFFggggggggggggg9....555555---@@@   ",
"      @@@*******------===555000000000---....9ggggggggBFFFFFFFFFFFFFggggggggggggg9....555555555---@@@",
"      @@@*******------===555000000000---....9ggggggggBFFFFFFFFFFFFFggggggggggggg9....555555555---@@@",
"      @@@*******------===555000000000---....9ggggggggBFFFFFFFFFFFFFggggggggggggg9....555555555---@@@",
"   @@@***5555555555---***===000000------....9ggggggggBFFFFFFFFFFFFFggggggggggggg9....555555555---@@@",
"   @@@***5555555555---@@@o$=000000-*@@@@jjjjbBBBBBBBBBBBBBBBBBAFFFFBBBBbgggggggga9999::::15555---@@@",
"   @@@***5555555555---....o=000000-@....FFFFFFFFFFFFFBggggggggBFFFFFFFFBggggggggggggg....:5555---@@@",
"   @@@,,,5555555555555....@-******-@....FFFFFFFFFFFFFBggggggggBFFFFFFFFBggggggggggggg....<0000---@@@",
"   @@@,,,5555555555555....@-******-@....FFFFFFFFFFFFFBggggggggBFFFFFFFFBggggggggggggg....<0000---@@@",
"   @@@,,,5555555555555....@-******-@....FFFFFFFFFFFFFBggggggggBFFFFFFFFBggggggggggggg....<0000---@@@",
"@@@,,,,,,,,,55555:....gggg9....555-@....FFFFFFFFFggggggggg>>>>rggggFFFFFFFFF>>>>rgggg....<0---@@@   ",
"@@@,,,,,,,,,55555:....gggg9....555-@....FFFFFFFFFggggggggg>>>>rggggFFFFFFFFF>>>>rgggg....<0---@@@   ",
"@@@,,,,,,,,,55555:....gggg9....555-@....FFFFFFFFFggggggggg>>>>rggggFFFFFFFFF>>>>rgggg....<0---@@@   ",
"@@@,,,,,,55500000<....gggg9....5555:....FFFFFFFFFggggggggg>>>>rggggFFFFFFFFF>>>>rgggg....@-@@@      ",
"@@@,,,,,,5550<<<<ujjjj99992****::::#....FFFFFFFFFggggggggg>>>>rggggFFFFFFFFF>>>>fBBBB....@-@@@      ",
"@@@,,,,,,5550....jFFFF....*,,,,.........FFFFFFFFFggggggggg>>>>rggggFFFFFFFFF>>>>lFFFF....@-@@@      ",
"@@@===5550000....jFFFF....@*555.........FFFFFFFFFggggggggg>>>>rggggFFFFFFFFF>>>>lFFFF....@****@@@   ",
"@@@===5550000....jFFFF....@*555.........FFFFFFFFFggggggggg>>>>rggggFFFFFFFFF>>>>lFFFF....@****@@@   ",
"@@@===5550000....jFFFF....@*555.........FFFFFFFFFggggggggg>>>>rggggFFFFFFFFF>>>>lFFFF....@****@@@   ",
"   @@@===0000....jFFFF.........FFFFFFFFFCCCCDFFFFFFFFBggggggggBFFFFkkkkMFFFFFFFFj....**5555555555@@@",
"   @@@===0000....jFFFF.........FFFFFFFFFCCCCDFFFFFFFFBggggggggBFFFFkkkkMFFFFFFFFj....**5555555555@@@",
"   @@@===0000....jFFFF.........FFFFFFFFFCCCCDFFFFFFFFBggggggggBFFFFkkkkMFFFFFFFFj....**5555555555@@@",
"   @@@******-....jFFFF.........FFFFFFFFFCCCCDFFFFFFFFBggggggggBFFFFkkkkMFFFFFFFFj....,,,,,,555000@@@",
"   @@@******-@@@@ejjjjdddddddddFFFFFFFFFCCCCSDDDDFFFFABBBBBBBBAFFFFMMMMZFFFFjjjjtooo*,,,,,,555000@@@",
"   @@@******----*@....CCCCCCCCCFFFFFFFFFCCCCCCCCCFFFFFFFFFFFFFFFFFFFFFFFFFFF....:===,,,,,,,555000@@@",
"   @@@******----*@....CCCCCCCCCFFFFFFFFFCCCCCCCCCFFFFFFFFFFFFFFFFFFFFFFFFFFF....:===,,,,,,,555000@@@",
"      @@@---****5:....CCCCCCCCCFFFFFFFFFCCCCCCCCCFFFFFFFFFFFFFFFFFFFFFFFFFFF....@,,,===5555000---@@@",
"      @@@---****5:....CCCCCCCCCFFFFFFFFFCCCCCCCCCFFFFFFFFFFFFFFFFFFFFFFFFFFF....@,,,===5555000---@@@",
"      @@@---****555555....dCCCCCCCCDFFFFFFFFDCCCCCCCCCCCCCCCCCCCCCCCCCCd....00---,,,===5555000---@@@",
"   @@@******5555555555....dCCCCCCCCDFFFFFFFFDCCCCCCCCCCCCCCCCCCCCCCCCCCd....-----******-------@@@   ",
"   @@@******5555555555....dCCCCCCCCDFFFFFFFFDCCCCCCCCCCCCCCCCCCCCCCCCCCd....-----******-------@@@   ",
"   @@@******5555555555....dCCCCCCCCDFFFFFFFFDCCCCCCCCCCCCCCCCCCCCCCCCCCd....-----******-------@@@   ",
"   @@@***,,,,,,,555555::::wddddCCCCSDDDDDDDDSCCCCCCCCCCCCCCCCCCCCCCCCCCd....--***5555555555---@@@   ",
"   @@@***,,,,,,,5555555555:....CCCCCCCCCCCCCCCCCCCCCCCCCCCCCCCCCCCCCCCCd....--***5555555555---@@@   ",
"   @@@***,,,,,,,5555555555:....CCCCCCCCCCCCCCCCCCCCCCCCCCCCCCCCCCCCCCCCd....--***5555555555---@@@   ",
"@@@***,,,,,,,,,,5555555555:....CCCCCCCCCCCCCCCCCCCCCCCCCCCCCCCCCCCCCCCCd....**,,,5555555555555@@@   ",
"@@@***,,,,,,,,,,5555555555:....CCCCCCCCCCCCCCCCCCCCCCCCCCCCCCCCCCCCCCCCd....**,,,5555555555555@@@   ",
"@@@***,,,,,,,,,,5555555555:....CCCCCCCCCCCCCCCCCCCCCCCCCCCCCCCCCCCC....@---***,,,5555555555555@@@   ",
"@@@,,,,,,,,,,,,,,,,5555555:....CCCCCCCCCCCCCCCCCCCCCCCCCCCCCCCCCCCC....:---***,,,,,,,,,5555555555@@@",
"@@@,,,,,,,,,,,,,,,,5555555:....CCCCCCCCCCCCCCCCCCCCCCCCCCCCCCCCCCCC....:---***,,,,,,,,,5555555555@@@",
"@@@,,,,,,,,,,,,,,,,5555555:....CCCCCCCCCCCCCCCCCCCCCCCCCCCCCCCCCCCC....:---***,,,,,,,,,5555555555@@@",
"@@@,,,,,,,,,,,,,5550000000<....CCCCmddddNNNNxddddddddmCCCCddddxNNNN....:555---===,,,,,,5555000000@@@",
"@@@,,,,,,,,,,,,,5550000000<....CCCCd....ccccy........dCCCC....ycccc....:555---===,,,,,,5555000000@@@",
"@@@,,,,,,,,,,,,,5550000000<....CCCCd....ccccy........dCCCC....ycccc....:555---===,,,,,,5555000000@@@",
"@@@===,,,,,,55550000000000<....CCCCd....ccccy........dCCCC....ycccc....:555---===,,,5550000000000@@@",
"@@@===,,,,,,55550000000000<....CCCCd....ccccy........dCCCC....ycccc....:555---===,,,5550000000000@@@",
"@@@===,,,,,,55550000000000<....CCCCd....ccccy........dCCCC....ycccc....:555---===,,,5550000000000@@@",
"   @@@,,,,,,5555000000000-@....CCCCd....ccccy........dCCCC....ycccc....<---******===0000000000000@@@",
"   @@@,,,,,,5555000000000-@....CCCCd....ccccy........dCCCC....ycccc....<---******===0000000000000@@@",
"   @@@,,,,,,5555000000000-@....CCCCd....ccccy........dCCCC....ycccc....<---******===0000000000000@@@",
"   @@@,,,,,,5555000000000-*@@@@dddd7o:::yyyy6<<@@@***8dddd*:::6yyyy<<<<5---******===0000000000000@@@",
"   @@@===5550000000000*********....X@===....<00===,,,*....5000<....00000***@@@******---0000000---@@@",
"   @@@===5550000000000*********....X@===....<00===,,,*....5000<....00000***@@@******---0000000---@@@",
"   @@@===5550000000000*********....X@===....<00===,,,*....5000<....00000***@@@******---0000000---@@@",
"      @@@===0000000***@@@@@@@@@....  @@@....@**@@@===:....0000<....00@@@@@@   @@@@@@***-------@@@   ",
"      @@@===0000000***@@@@@@@@@      @@@@******@@@===5550000000000000@@@@@@   @@@@@@***-------@@@   ",
"      @@@===0000000***@@@@@@@@@      @@@@******@@@===5550000000000000@@@@@@   @@@@@@***-------@@@   ",
"         @@@@@@@@@@@@@                   @@@@@@   @@@@@@@@@@@@@@@@@@@               @@@@@@@@@@      ",
"         @@@@@@@@@@@@@                   @@@@@@   @@@@@@@@@@@@@@@@@@@               @@@@@@@@@@      ",
"         @@@@@@@@@@@@@                   @@@@@@   @@@@@@@@@@@@@@@@@@@               @@@@@@@@@@      "
};
